<svg width="380" height="220" viewBox="0 0 380 220" fill="none" xmlns="http://www.w3.org/2000/svg">
<line x1="120" y1="10" x2="20" y2="10" stroke="#FF7E7E" stroke-opacity="0.8" stroke-width="20"/>
<line x1="120" y1="210" y2="210" stroke="#FF7E7E" stroke-opacity="0.8" stroke-width="20"/>
<line x1="120" y1="110" x2="20" y2="110" stroke="#FF7E7E" stroke-opacity="0.8" stroke-width="20"/>
<line x1="10" x2="10" y2="120" stroke="#FF7E7E" stroke-opacity="0.8" stroke-width="20"/>
<line x1="130" x2="130" y2="100" stroke="#7E80FF" stroke-opacity="0.8" stroke-width="20"/>
<line x1="250" x2="250" y2="100" stroke="#7E80FF" stroke-opacity="0.8" stroke-width="20"/>
<line x1="140" y1="110" x2="240" y2="110" stroke="#7E80FF" stroke-opacity="0.8" stroke-width="20"/>
<line x1="250" y1="100" x2="250" y2="220" stroke="#7E80FF" stroke-opacity="0.8" stroke-width="20"/>
<line x1="250" x2="250" y2="100" stroke="#FF7EEE" stroke-opacity="0.8" stroke-width="20"/>
<line x1="260" y1="210" x2="380" y2="210" stroke="#FF7EEE" stroke-opacity="0.8" stroke-width="20"/>
<line x1="260" y1="10" x2="380" y2="10" stroke="#7EF2FF" stroke-opacity="0.8" stroke-width="20"/>
<line x1="260" y1="10" x2="380" y2="10" stroke="#7EF2FF" stroke-opacity="0.8" stroke-width="20"/>
<line x1="260" y1="10" x2="380" y2="10" stroke="#7EF2FF" stroke-opacity="0.8" stroke-width="20"/>
<line x1="260" y1="10" x2="380" y2="10" stroke="#FFD27E" stroke-opacity="0.8" stroke-width="20"/>
<line x1="250" y1="120" x2="250" y2="220" stroke="#FFD27E" stroke-opacity="0.8" stroke-width="20"/>
<line x1="250" x2="250" y2="120" stroke="#FFD27E" stroke-opacity="0.8" stroke-width="20"/>
<line x1="260" y1="110" x2="380" y2="110" stroke="#FFD27E" stroke-opacity="0.8" stroke-width="20"/>
<line x1="250" x2="250" y2="120" stroke="#7EF2FF" stroke-opacity="0.8" stroke-width="20"/>
<line x1="250" y1="120" x2="250" y2="220" stroke="#7EF2FF" stroke-opacity="0.8" stroke-width="20"/>
<line x1="260" y1="210" x2="380" y2="210" stroke="#7EF2FF" stroke-opacity="0.8" stroke-width="20"/>
<line x1="260" y1="110" x2="380" y2="110" stroke="#7EF2FF" stroke-opacity="0.8" stroke-width="20"/>
<line x1="250" y1="100" x2="250" y2="220" stroke="#FF7EEE" stroke-opacity="0.8" stroke-width="20"/>
<line x1="130" y1="100" x2="130" y2="220" stroke="#7E80FF" stroke-opacity="0.8" stroke-width="20"/>
<line x1="130" y1="100" x2="130" y2="220" stroke="#FF7E7E" stroke-opacity="0.8" stroke-width="20"/>
</svg>
